<mxfile host="app.diagrams.net" modified="2023-11-23T16:48:29.834Z" agent="Mozilla/5.0 (Windows NT 10.0; Win64; x64) AppleWebKit/537.36 (KHTML, like Gecko) Chrome/118.0.0.0 Safari/537.36 OPR/104.0.0.0" etag="9gF6CZ92sVnUPYRB0Bcv" version="22.1.3" type="google">
  <diagram name="PÃ¡gina-1" id="zQdl2e06OpSuAtHp2elC">
    <mxGraphModel grid="1" page="1" gridSize="10" guides="1" tooltips="1" connect="1" arrows="1" fold="1" pageScale="1" pageWidth="827" pageHeight="1169" math="0" shadow="0">
      <root>
        <mxCell id="0" />
        <mxCell id="1" parent="0" />
        <mxCell id="QJzZoRpQikAPdqT0NtZf-1" value="&amp;lt;&amp;lt;abstract&amp;gt;&amp;gt;Funcionario" style="swimlane;whiteSpace=wrap;html=1;startSize=23;" vertex="1" parent="1">
          <mxGeometry x="505" y="80" width="160" height="130" as="geometry" />
        </mxCell>
        <mxCell id="QJzZoRpQikAPdqT0NtZf-7" value="- nome: String&lt;br&gt;- cpf:String&lt;br&gt;" style="text;html=1;align=left;verticalAlign=middle;resizable=0;points=[];autosize=1;strokeColor=none;fillColor=none;" vertex="1" parent="QJzZoRpQikAPdqT0NtZf-1">
          <mxGeometry y="38" width="100" height="40" as="geometry" />
        </mxCell>
        <mxCell id="QJzZoRpQikAPdqT0NtZf-9" value="" style="endArrow=none;html=1;rounded=0;" edge="1" parent="QJzZoRpQikAPdqT0NtZf-1">
          <mxGeometry width="50" height="50" relative="1" as="geometry">
            <mxPoint y="91" as="sourcePoint" />
            <mxPoint x="160" y="91" as="targetPoint" />
          </mxGeometry>
        </mxCell>
        <mxCell id="QJzZoRpQikAPdqT0NtZf-10" value="+ calculaSalario():Double" style="text;html=1;align=center;verticalAlign=middle;resizable=0;points=[];autosize=1;strokeColor=none;fillColor=none;" vertex="1" parent="QJzZoRpQikAPdqT0NtZf-1">
          <mxGeometry x="-10" y="92" width="160" height="30" as="geometry" />
        </mxCell>
        <mxCell id="QJzZoRpQikAPdqT0NtZf-12" style="edgeStyle=orthogonalEdgeStyle;rounded=0;orthogonalLoop=1;jettySize=auto;html=1;entryX=0.5;entryY=1;entryDx=0;entryDy=0;endArrow=classic;endFill=1;" edge="1" parent="1" source="QJzZoRpQikAPdqT0NtZf-3" target="QJzZoRpQikAPdqT0NtZf-1">
          <mxGeometry relative="1" as="geometry">
            <Array as="points">
              <mxPoint x="420" y="270" />
              <mxPoint x="585" y="270" />
            </Array>
          </mxGeometry>
        </mxCell>
        <mxCell id="QJzZoRpQikAPdqT0NtZf-3" value="Secretaria" style="swimlane;whiteSpace=wrap;html=1;startSize=23;" vertex="1" parent="1">
          <mxGeometry x="360" y="540" width="142" height="160" as="geometry" />
        </mxCell>
        <mxCell id="dpGfHK6EMPBMvDQxX8k0-2" style="edgeStyle=orthogonalEdgeStyle;rounded=0;orthogonalLoop=1;jettySize=auto;html=1;entryX=0.5;entryY=1;entryDx=0;entryDy=0;" edge="1" parent="1" source="QJzZoRpQikAPdqT0NtZf-4" target="QJzZoRpQikAPdqT0NtZf-29">
          <mxGeometry relative="1" as="geometry">
            <Array as="points">
              <mxPoint x="447" y="730" />
              <mxPoint x="641" y="730" />
            </Array>
          </mxGeometry>
        </mxCell>
        <mxCell id="QJzZoRpQikAPdqT0NtZf-4" value="Professor" style="swimlane;whiteSpace=wrap;html=1;startSize=23;" vertex="1" parent="1">
          <mxGeometry x="372" y="780" width="150" height="160" as="geometry" />
        </mxCell>
        <mxCell id="QJzZoRpQikAPdqT0NtZf-40" value="" style="endArrow=none;html=1;rounded=0;" edge="1" parent="QJzZoRpQikAPdqT0NtZf-4">
          <mxGeometry width="50" height="50" relative="1" as="geometry">
            <mxPoint y="81.5" as="sourcePoint" />
            <mxPoint x="150" y="80" as="targetPoint" />
          </mxGeometry>
        </mxCell>
        <mxCell id="QJzZoRpQikAPdqT0NtZf-36" style="edgeStyle=orthogonalEdgeStyle;rounded=0;orthogonalLoop=1;jettySize=auto;html=1;entryX=0.5;entryY=1;entryDx=0;entryDy=0;" edge="1" parent="1" source="QJzZoRpQikAPdqT0NtZf-5" target="QJzZoRpQikAPdqT0NtZf-29">
          <mxGeometry relative="1" as="geometry">
            <Array as="points">
              <mxPoint x="672" y="730" />
              <mxPoint x="641" y="730" />
            </Array>
          </mxGeometry>
        </mxCell>
        <mxCell id="QJzZoRpQikAPdqT0NtZf-5" value="Coordenador" style="swimlane;whiteSpace=wrap;html=1;startSize=23;" vertex="1" parent="1">
          <mxGeometry x="602" y="770" width="150" height="160" as="geometry" />
        </mxCell>
        <mxCell id="QJzZoRpQikAPdqT0NtZf-39" value="" style="endArrow=none;html=1;rounded=0;" edge="1" parent="QJzZoRpQikAPdqT0NtZf-5">
          <mxGeometry width="50" height="50" relative="1" as="geometry">
            <mxPoint x="-1" y="80" as="sourcePoint" />
            <mxPoint x="148" y="79.5" as="targetPoint" />
          </mxGeometry>
        </mxCell>
        <mxCell id="QJzZoRpQikAPdqT0NtZf-18" value="&amp;lt;&amp;lt;Interface&amp;gt;&amp;gt; Bonificavel" style="swimlane;whiteSpace=wrap;html=1;startSize=23;" vertex="1" parent="1">
          <mxGeometry x="750" y="320" width="150" height="160" as="geometry" />
        </mxCell>
        <mxCell id="QJzZoRpQikAPdqT0NtZf-19" value="+ getBonus():Double" style="text;html=1;align=center;verticalAlign=middle;resizable=0;points=[];autosize=1;strokeColor=none;fillColor=none;" vertex="1" parent="QJzZoRpQikAPdqT0NtZf-18">
          <mxGeometry x="10" y="100" width="130" height="30" as="geometry" />
        </mxCell>
        <mxCell id="dpGfHK6EMPBMvDQxX8k0-6" value="" style="endArrow=none;html=1;rounded=0;" edge="1" parent="QJzZoRpQikAPdqT0NtZf-18">
          <mxGeometry width="50" height="50" relative="1" as="geometry">
            <mxPoint y="95" as="sourcePoint" />
            <mxPoint x="150" y="95" as="targetPoint" />
          </mxGeometry>
        </mxCell>
        <mxCell id="QJzZoRpQikAPdqT0NtZf-25" value="- salario:Double&lt;br&gt;-extra:Double" style="text;html=1;align=center;verticalAlign=middle;resizable=0;points=[];autosize=1;strokeColor=none;fillColor=none;" vertex="1" parent="1">
          <mxGeometry x="361" y="580" width="110" height="40" as="geometry" />
        </mxCell>
        <mxCell id="QJzZoRpQikAPdqT0NtZf-34" style="edgeStyle=orthogonalEdgeStyle;rounded=0;orthogonalLoop=1;jettySize=auto;html=1;entryX=0.5;entryY=1;entryDx=0;entryDy=0;" edge="1" parent="1" source="QJzZoRpQikAPdqT0NtZf-29" target="QJzZoRpQikAPdqT0NtZf-1">
          <mxGeometry relative="1" as="geometry">
            <Array as="points">
              <mxPoint x="641" y="270" />
              <mxPoint x="585" y="270" />
            </Array>
          </mxGeometry>
        </mxCell>
        <mxCell id="dpGfHK6EMPBMvDQxX8k0-5" style="edgeStyle=orthogonalEdgeStyle;rounded=0;orthogonalLoop=1;jettySize=auto;html=1;entryX=0.5;entryY=1;entryDx=0;entryDy=0;dashed=1;" edge="1" parent="1" source="QJzZoRpQikAPdqT0NtZf-29" target="QJzZoRpQikAPdqT0NtZf-18">
          <mxGeometry relative="1" as="geometry" />
        </mxCell>
        <mxCell id="QJzZoRpQikAPdqT0NtZf-29" value="&amp;lt;&amp;lt;abstract&amp;gt;&amp;gt;&lt;br&gt;FuncionarioHorasSemanais" style="swimlane;whiteSpace=wrap;html=1;startSize=23;" vertex="1" parent="1">
          <mxGeometry x="551" y="550" width="180" height="160" as="geometry" />
        </mxCell>
        <mxCell id="QJzZoRpQikAPdqT0NtZf-30" value="- qtdHorasSemanais: Integer&lt;br&gt;- valorHora: Double" style="text;html=1;align=left;verticalAlign=middle;resizable=0;points=[];autosize=1;strokeColor=none;fillColor=none;" vertex="1" parent="QJzZoRpQikAPdqT0NtZf-29">
          <mxGeometry y="38" width="180" height="40" as="geometry" />
        </mxCell>
        <mxCell id="QJzZoRpQikAPdqT0NtZf-33" value="+ getBonus():Double" style="text;html=1;align=center;verticalAlign=middle;resizable=0;points=[];autosize=1;strokeColor=none;fillColor=none;" vertex="1" parent="QJzZoRpQikAPdqT0NtZf-29">
          <mxGeometry y="93" width="130" height="30" as="geometry" />
        </mxCell>
        <mxCell id="QJzZoRpQikAPdqT0NtZf-37" value="- qtdCursos: Integer" style="text;html=1;align=center;verticalAlign=middle;resizable=0;points=[];autosize=1;strokeColor=none;fillColor=none;" vertex="1" parent="1">
          <mxGeometry x="603" y="798" width="130" height="30" as="geometry" />
        </mxCell>
        <mxCell id="QJzZoRpQikAPdqT0NtZf-38" value="" style="endArrow=none;html=1;rounded=0;" edge="1" parent="1">
          <mxGeometry width="50" height="50" relative="1" as="geometry">
            <mxPoint x="360" y="637" as="sourcePoint" />
            <mxPoint x="500" y="637" as="targetPoint" />
          </mxGeometry>
        </mxCell>
        <mxCell id="QJzZoRpQikAPdqT0NtZf-42" value="ControleBonus" style="swimlane;whiteSpace=wrap;html=1;startSize=23;" vertex="1" parent="1">
          <mxGeometry x="1080" y="280" width="300" height="200" as="geometry" />
        </mxCell>
        <mxCell id="QJzZoRpQikAPdqT0NtZf-43" value="" style="endArrow=none;html=1;rounded=0;" edge="1" parent="QJzZoRpQikAPdqT0NtZf-42">
          <mxGeometry width="50" height="50" relative="1" as="geometry">
            <mxPoint y="81.5" as="sourcePoint" />
            <mxPoint x="300" y="79" as="targetPoint" />
          </mxGeometry>
        </mxCell>
        <mxCell id="dpGfHK6EMPBMvDQxX8k0-1" value="&lt;div style=&quot;text-align: left;&quot;&gt;&lt;span style=&quot;background-color: initial;&quot;&gt;+adicionarBonificavel(Bonificavel bonificavel): void&lt;/span&gt;&lt;/div&gt;&lt;div style=&quot;text-align: left;&quot;&gt;&lt;span style=&quot;background-color: initial;&quot;&gt;+exibirBonificaveis():void&lt;/span&gt;&lt;/div&gt;&lt;div style=&quot;text-align: left;&quot;&gt;&lt;span style=&quot;background-color: initial;&quot;&gt;+totalBonus():Double&lt;/span&gt;&lt;/div&gt;" style="text;html=1;strokeColor=none;fillColor=none;align=center;verticalAlign=middle;whiteSpace=wrap;rounded=0;" vertex="1" parent="QJzZoRpQikAPdqT0NtZf-42">
          <mxGeometry x="10" y="90" width="290" height="30" as="geometry" />
        </mxCell>
        <mxCell id="QJzZoRpQikAPdqT0NtZf-45" value="0..1" style="text;html=1;align=center;verticalAlign=middle;resizable=0;points=[];autosize=1;strokeColor=none;fillColor=none;" vertex="1" parent="QJzZoRpQikAPdqT0NtZf-42">
          <mxGeometry x="-34" y="116" width="40" height="30" as="geometry" />
        </mxCell>
        <mxCell id="QJzZoRpQikAPdqT0NtZf-46" value="1..*" style="text;html=1;align=center;verticalAlign=middle;resizable=0;points=[];autosize=1;strokeColor=none;fillColor=none;" vertex="1" parent="1">
          <mxGeometry x="910" y="396" width="40" height="30" as="geometry" />
        </mxCell>
        <mxCell id="QJzZoRpQikAPdqT0NtZf-44" style="edgeStyle=orthogonalEdgeStyle;rounded=0;orthogonalLoop=1;jettySize=auto;html=1;endArrow=diamondThin;endFill=0;endSize=24;entryX=0;entryY=0.5;entryDx=0;entryDy=0;" edge="1" parent="1" target="QJzZoRpQikAPdqT0NtZf-42">
          <mxGeometry relative="1" as="geometry">
            <mxPoint x="1120" y="379.41" as="targetPoint" />
            <mxPoint x="900" y="380" as="sourcePoint" />
          </mxGeometry>
        </mxCell>
      </root>
    </mxGraphModel>
  </diagram>
</mxfile>
